<?xml version="1.0" encoding="utf-8"?>
<!-- Generator: Adobe Illustrator 17.0.0, SVG Export Plug-In . SVG Version: 6.00 Build 0)  -->
<!DOCTYPE svg PUBLIC "-//W3C//DTD SVG 1.1//EN" "http://www.w3.org/Graphics/SVG/1.1/DTD/svg11.dtd">
<svg version="1.1" id="Layer_1" xmlns="http://www.w3.org/2000/svg" xmlns:xlink="http://www.w3.org/1999/xlink" x="0px" y="0px"
	 width="50px" height="50px" viewBox="0 0 50 50" enable-background="new 0 0 50 50" xml:space="preserve">
<g>
	<polygon fill="#F9A942" points="20.465,35.159 24.97,27.356 29.474,35.159 33.959,42.926 46.631,42.916 35.8,24.192 24.97,5.468 
		14.17,24.209 3.369,42.951 15.972,42.94 	"/>
	<polygon fill="#F6901F" points="9.744,32.135 12.891,37.587 16.039,43.038 9.744,43.038 3.449,43.038 6.596,37.587 	"/>
	<polygon opacity="0.5" fill="#F6901F" points="16.163,42.488 13.015,37.036 9.868,31.585 16.163,31.585 22.458,31.585 
		19.31,37.036 	"/>
	<polygon opacity="0.4" fill="#F6901F" points="16.484,20.352 19.631,25.803 22.779,31.255 16.484,31.255 10.189,31.255 
		13.336,25.803 	"/>
</g>
</svg>
